<svg width="400" height="400" xmlns="http://www.w3.org/2000/svg">
  <path d="M33 97.6L144.8 33 167 46v157.6c4.3 67.6 63.4 84.6 78.7 85.2 6.2-12 9.3-28.5 9.8-35.3l.5-169.2L345.3 33l22.3 13s.2 156.4 0 159c-2.6 40.6-23 70-48.8 87.5 0 0-78 45.7-108.6 62.8C126 395 36.2 335.3 33 249.7v-152zm245.4-.2l66.8-39-.3 146.2c-3.8 68-55.7 79-75 84.3 3-12 7.6-23.5 8.2-40.5v-151zm-222.8 13l89.2-51.8v144.7c4 80 72 102.4 88.3 106-22.6 32-68.2 43.8-107.4 31.5-36.6-11.6-68.3-44.5-69.8-93V110.2z" fill="#02B3E4" fill-rule="evenodd"/>
</svg>
